<svg width="40" height="40" viewBox="0 0 40 40" fill="none" xmlns="http://www.w3.org/2000/svg">
<rect width="40" height="40" fill="#D7DCE5"/>
<g id="Form_09">
<rect width="1440" height="1699" transform="translate(-564 -1404)" fill="#F5F5F5"/>
<g id="Frame 1000005388">
<g id="Frame 1000005387" filter="url(#filter0_dd_2153_37247)">
<path d="M-376 -1264C-376 -1268.42 -372.418 -1272 -368 -1272H836.5C840.918 -1272 844.5 -1268.42 844.5 -1264V222C844.5 226.418 840.918 230 836.5 230H-368C-372.418 230 -376 226.418 -376 222V-1264Z" fill="white"/>
<path d="M-368 -1271.5H836.5C840.642 -1271.5 844 -1268.14 844 -1264V222C844 226.142 840.642 229.5 836.5 229.5H-368C-372.142 229.5 -375.5 226.142 -375.5 222V-1264C-375.5 -1268.14 -372.142 -1271.5 -368 -1271.5Z" stroke="#E2E8F0"/>
<g id="Frame 1000005281">
<g id="Frame 1000005416">
<g id="Frame 1000005353">
<g id="Group">
<path id="Vector" d="M20 0C8.95469 0 0 8.95469 0 20C0 31.0453 8.95469 40 20 40C31.0453 40 40 31.0453 40 20C40 8.95469 31.0453 0 20 0Z" fill="#059669"/>
<g id="heroicons-outline/check-circle">
<path id="Vector_2" d="M17.5 20.625L19.375 22.5L22.5 18.125M27.5 20C27.5 24.1421 24.1421 27.5 20 27.5C15.8579 27.5 12.5 24.1421 12.5 20C12.5 15.8579 15.8579 12.5 20 12.5C24.1421 12.5 27.5 15.8579 27.5 20Z" stroke="white" stroke-width="1.5" stroke-linecap="round" stroke-linejoin="round"/>
</g>
</g>
</g>
</g>
</g>
</g>
</g>
</g>
<defs>
<filter id="filter0_dd_2153_37247" x="-379" y="-1274" width="1226.5" height="1508" filterUnits="userSpaceOnUse" color-interpolation-filters="sRGB">
<feFlood flood-opacity="0" result="BackgroundImageFix"/>
<feColorMatrix in="SourceAlpha" type="matrix" values="0 0 0 0 0 0 0 0 0 0 0 0 0 0 0 0 0 0 127 0" result="hardAlpha"/>
<feOffset dy="1"/>
<feGaussianBlur stdDeviation="1"/>
<feColorMatrix type="matrix" values="0 0 0 0 0 0 0 0 0 0 0 0 0 0 0 0 0 0 0.06 0"/>
<feBlend mode="normal" in2="BackgroundImageFix" result="effect1_dropShadow_2153_37247"/>
<feColorMatrix in="SourceAlpha" type="matrix" values="0 0 0 0 0 0 0 0 0 0 0 0 0 0 0 0 0 0 127 0" result="hardAlpha"/>
<feOffset dy="1"/>
<feGaussianBlur stdDeviation="1.5"/>
<feColorMatrix type="matrix" values="0 0 0 0 0 0 0 0 0 0 0 0 0 0 0 0 0 0 0.1 0"/>
<feBlend mode="normal" in2="effect1_dropShadow_2153_37247" result="effect2_dropShadow_2153_37247"/>
<feBlend mode="normal" in="SourceGraphic" in2="effect2_dropShadow_2153_37247" result="shape"/>
</filter>
</defs>
</svg>
